# xmcd
#
# Track frame offsets:
#	150
#	20307
#	40702
#	61837
#	79335
#	99525
#	121042
#	137060
#	157462
#	174342
#	194675
#	213740
#
# Disc length: 3122 seconds
#
# Revision: 4
# Processed by: cddbd v1.5.2PL0 Copyright (c) Steve Scherf et al.
# Submitted via: EasyCDDAExtractor 15.3.0.1
#
DISCID=a60c300c
DTITLE=Manny Manuel - Es Mi Tiempo
DYEAR=1998
DGENRE=Latin
TTITLE0=Como Duele
TTITLE1=Se Que Me Engañaste Un Dia
TTITLE2=Corazon Partio'
TTITLE3=Ella Jura
TTITLE4=Me Molesta
TTITLE5=Por El Amor De Una Mujer
TTITLE6=Niña Bonita
TTITLE7=Angel De La Noche
TTITLE8=Comprension
TTITLE9=Desvelo De Amor
TTITLE10=El Siroco
TTITLE11=Margarita
EXTD=
EXTT0=
EXTT1=
EXTT2=
EXTT3=
EXTT4=
EXTT5=
EXTT6=
EXTT7=
EXTT8=
EXTT9=
EXTT10=
EXTT11=
PLAYORDER=
